<svg width="120" height="29.53" xmlns="http://www.w3.org/2000/svg">

 <g>
  <title>Layer 1</title>
  <path fill="#55efc4" id="svg_1" d="m40.7,6.98s-0.05,0 -0.07,0c-0.02,0 -0.05,0 -0.07,0c-4.67,0 -7.58,2.91 -7.58,7.6l0,2.53c0,4.69 2.9,7.6 7.58,7.6c0.02,0 0.05,0 0.07,0c0.02,0 0.05,0 0.07,0c4.67,0 7.58,-2.91 7.58,-7.6l0,-2.53c0,-4.69 -2.91,-7.6 -7.58,-7.6zm4.31,10.31c0,3.08 -1.6,4.86 -4.38,4.89c-2.78,-0.03 -4.38,-1.81 -4.38,-4.89l0,-2.88c0,-3.08 1.6,-4.86 4.38,-4.89c2.78,0.03 4.38,1.81 4.38,4.89l0,2.88zm40.57,-5.79s-0.06,0 -0.09,0c-0.02,0 -0.03,0 -0.05,0c-1.77,0 -3.03,0.6 -3.65,1.75l-0.19,0.35l0,-1.8l-3.02,0l0,12.56l3.17,0l0,-7.48c0,-1.76 0.95,-2.77 2.59,-2.8c1.57,0.03 2.47,1.02 2.47,2.73l0,7.55l3.17,0l0,-8.09c0,-2.99 -1.64,-4.77 -4.39,-4.77l-0.01,0zm34.42,-1.77l0,-2.4l-10.46,0l0,2.4l3.67,0l0,12.22l-3.67,0l0,2.4l10.46,0l0,-2.4l-3.67,0l0,-12.22l3.67,0zm-18.75,-2.4l0,0s-3.28,0 -3.28,0l-6.1,17.04l3.43,0l1.17,-3.65l6.66,0l0,0.04s1.17,3.62 1.17,3.62l3.43,0l-6.11,-17.04l-0.36,0l-0.01,-0.01zm-4.03,10.98l2.57,-8.05l2.55,8.05l-5.12,0zm-39.45,-6.81s-0.05,0 -0.07,0c-0.03,0 -0.05,0 -0.07,0c-1.59,0 -2.96,0.66 -3.68,1.76l-0.18,0.28l0,-1.74l-3.02,0l0,16.89l3.17,0l0,-5.9l0.18,0.27c0.68,1.01 2.01,1.61 3.56,1.61c0.03,0 0.05,0 0.08,0c0.02,0 0.04,0 0.07,0c2.61,0 5.24,-1.7 5.24,-5.51l0,-2.14c0,-2.74 -1.62,-5.51 -5.26,-5.51l-0.02,-0.01zm2.1,7.5c0,2 -1.15,3.24 -3.01,3.28c-1.73,-0.03 -2.94,-1.35 -2.94,-3.23l0,-1.89c0,-1.9 1.22,-3.24 2.97,-3.28c1.84,0.03 2.98,1.28 2.98,3.28l0,1.84zm11.05,-7.5l0,0c-0.06,0 -0.12,0.01 -0.18,0.01c-0.06,0 -0.12,-0.01 -0.18,-0.01l0,0c-3.57,0 -5.78,2.23 -5.78,5.81l0,1.76c0,3.45 2.24,5.59 5.83,5.59c0.08,0 0.15,0 0.22,-0.01c0.05,0 0.09,0.01 0.14,0.01c2.41,0 4.09,-0.88 5.16,-2.7l-2.13,-1.23c-0.71,1.05 -1.66,1.84 -3.02,1.84c-1.82,0 -2.91,-1.12 -2.91,-3.01l0,-0.5l8.44,0l0,-2.08c0,-3.34 -2.19,-5.49 -5.59,-5.49l0,0.01zm-2.86,5.54l0,-0.3c0,-2 0.95,-3.12 2.68,-3.2c1.66,0.08 2.66,1.18 2.66,2.99l0,0.5s-5.34,0 -5.34,0l0,0.01z"/>
  <path fill="#55efc4" id="svg_2" d="m27.21,12.08c0.67,-2.01 0.44,-4.21 -0.63,-6.04c-1.61,-2.8 -4.85,-4.24 -8.01,-3.57c-1.41,-1.58 -3.43,-2.48 -5.55,-2.47c-3.23,0 -6.1,2.08 -7.1,5.15c-2.08,0.43 -3.87,1.73 -4.92,3.57c-1.62,2.8 -1.25,6.32 0.92,8.72c-0.67,2.01 -0.44,4.21 0.63,6.03c1.61,2.81 4.85,4.25 8.02,3.58c1.4,1.58 3.42,2.49 5.54,2.48c3.23,0 6.1,-2.08 7.1,-5.15c2.08,-0.43 3.87,-1.73 4.91,-3.57c1.63,-2.8 1.26,-6.32 -0.91,-8.72l0,-0.01zm-2.3,-5.07c0.64,1.12 0.88,2.43 0.66,3.7c-0.04,-0.03 -0.12,-0.07 -0.17,-0.1l-5.88,-3.4c-0.3,-0.17 -0.67,-0.17 -0.97,0l-6.89,3.98l0,-2.92l5.69,-3.29c2.65,-1.53 6.03,-0.62 7.56,2.03zm-13.25,6.07l2.9,-1.68l2.9,1.68l0,3.35l-2.9,1.68l-2.9,-1.68l0,-3.35zm1.35,-11.15c1.3,0 2.55,0.45 3.55,1.28c-0.04,0.02 -0.12,0.07 -0.18,0.1l-5.88,3.39c-0.3,0.17 -0.48,0.49 -0.48,0.84l0,7.96l-2.53,-1.46l0,-6.58c0,-3.06 2.47,-5.53 5.53,-5.54l-0.01,0.01zm-10.33,7.76l0,0c0.65,-1.12 1.66,-1.98 2.88,-2.43l0,6.99c0,0.35 0.18,0.66 0.48,0.84l6.88,3.97l-2.54,1.47l-5.68,-3.28c-2.64,-1.53 -3.55,-4.91 -2.02,-7.56zm1.55,12.83l0,0c-0.65,-1.11 -0.88,-2.43 -0.66,-3.7c0.04,0.03 0.12,0.07 0.17,0.1l5.88,3.4c0.3,0.17 0.67,0.17 0.97,0l6.88,-3.98l0,2.92l-5.69,3.28c-2.65,1.52 -6.03,0.62 -7.56,-2.02l0.01,0zm11.89,5.08c-1.29,0 -2.55,-0.45 -3.54,-1.28c0.04,-0.02 0.13,-0.07 0.18,-0.1l5.88,-3.39c0.3,-0.17 0.49,-0.49 0.48,-0.84l0,-7.95l2.53,1.46l0,6.57c0,3.06 -2.48,5.54 -5.53,5.54l0,-0.01zm10.34,-7.76c-0.65,1.12 -1.67,1.98 -2.88,2.42l0,-6.99c0,-0.35 -0.18,-0.67 -0.48,-0.84l0,0l-6.89,-3.98l2.53,-1.46l5.69,3.28c2.65,1.53 3.55,4.91 2.02,7.56l0.01,0.01z"/>
 </g>
</svg>